<?xml version="1.0" encoding="utf-8"?>
<!-- Svg Vector Icons : http://www.onlinewebfonts.com/icon -->
<!DOCTYPE svg PUBLIC "-//W3C//DTD SVG 1.1//EN" "http://www.w3.org/Graphics/SVG/1.1/DTD/svg11.dtd">
<svg version="1.1" xmlns="http://www.w3.org/2000/svg" xmlns:xlink="http://www.w3.org/1999/xlink" x="0px" y="0px" viewBox="0 0 256 256" enable-background="new 0 0 256 256" xml:space="preserve">
<metadata> Svg Vector Icons : http://www.onlinewebfonts.com/icon </metadata>
<g><g><path fill="#000000" d="M10.1,33.7c1.2,0,2.3-0.1,3.3-0.1c55.5,0,111-0.4,166.5,0.1c26.4,0.2,46.6,12.3,59,36.1c4.7,9.1,7,18.9,7,29.2c0,19.8,0.3,39.6-0.1,59.4c-0.6,27.2-14.1,46.3-38.3,58.1c-8.5,4.1-17.5,5.9-26.9,5.9c-34,0-68,0.4-102.1-0.2C54.2,221.8,34.5,211.6,21,191c-8.9-13.5-11-28.8-11-44.6c0.1-36,0-71.9,0.1-107.9C10.1,37.1,10.1,35.6,10.1,33.7z M12.4,35.6c-0.1,0.9-0.3,1.3-0.3,1.8c0,38.4-0.1,76.7,0.1,115.1c0.1,14.3,3.5,27.7,12,39.5c13.3,18.6,31.9,27.7,54.3,28.1c34,0.6,68,0.2,102.1,0.1c3.3,0,6.7-0.3,10-0.8c30.4-4.7,52.9-30.9,53-61.6c0.1-20,0.2-40-0.1-60.1c-0.1-5.4-0.8-10.9-2.4-16c-8.7-28.6-32.8-46.1-62.8-46.1c-52.2,0-104.5,0-156.7,0C18.8,35.6,15.8,35.6,12.4,35.6z"/><path fill="#000000" d="M115.9,87.2c2.1,5.6,4.3,10.6,5.8,15.9c0.8,3,0.5,6.4,0.5,9.7c0.1,3,0,6,0,9.6c-2.6,0-5,0-7.4,0c-11.3,0-22.7-0.1-34,0.1c-16.1,0.2-28.8,13.3-28.6,29.3c0.3,16,12.9,28.6,28.8,28.7c1.9,0,3.8,0,5.9,0c0-3.8,0-7.3,0-11.2c-2.1-0.1-4.2-0.2-6.3-0.3c-9.7-0.5-17.2-8.3-17-17.6c0.2-9.7,7.5-17.2,17.2-17.3c13.6-0.1,27.2,0,41.1,0c0,27.3,0,54.2,0,81.3c-0.3,0.1-0.7,0.4-1.2,0.4c-15.2-0.1-30.5,0.6-45.6-0.6c-25.6-2.1-43.6-16-53.5-39.5c-15.3-36.3,6.3-77.7,44.7-86.7c5.1-1.2,10.5-1.7,15.7-1.8c10.5-0.3,21-0.1,31.5,0C114.7,87.1,115.6,87.2,115.9,87.2z"/><path fill="#000000" d="M128.5,133.9c1.7,0,3.5,0,5.2,0c20.9,0,41.7,0.1,62.6-0.1c2.1,0,4.8-0.8,6.1-2.3c1.1-1.3,1.5-4.4,0.7-5.9c-0.9-1.6-3.4-3.2-5.3-3.2c-11.3-0.3-22.7-0.2-34-0.2c-23.3,0-41.7-18.3-41.7-41.4c0-21.6,17.7-39.9,39.3-40.3c12.1-0.2,24.1,0,36.5,0c0,11.6,0,23.1,0,34.9c-3.2,0-6.3,0-9.4,0c-6,0-12.1,0-18.1,0c-4.5,0-7.2,2.3-7.1,5.9c0,3.7,2.4,5.6,6.9,5.6c9.2,0,18.3-0.3,27.5,0.1c5.1,0.2,10.4,1,15.1,2.8c18.9,7,29.5,26.5,25.6,46.2c-3.6,18.8-20.5,32.7-40,32.8c-22.3,0.1-44.6,0-66.9,0c-1.9,0-3.6,0.3-3.6-2.6c0.1-10.4,0.1-20.8,0.1-31.1C128,135,128.2,134.6,128.5,133.9z"/></g></g>
</svg>